<?xml version="1.0" standalone="no"?>
<!DOCTYPE svg PUBLIC "-//W3C//DTD SVG 20010904//EN"
 "http://www.w3.org/TR/2001/REC-SVG-20010904/DTD/svg10.dtd">
<svg version="1.0" xmlns="http://www.w3.org/2000/svg"
 width="1024.000000pt" height="1024.000000pt" viewBox="0 0 1024.000000 1024.000000"
 preserveAspectRatio="xMidYMid meet">
<metadata>
Created by potrace 1.14, written by Peter Selinger 2001-2017
</metadata>
<g transform="translate(0.000000,1024.000000) scale(0.100000,-0.100000)"
fill="#000000" stroke="none">
<path d="M5185 8309 c-36 -10 -70 -39 -88 -77 -8 -15 -49 -146 -92 -292 -42
-146 -93 -317 -112 -380 -19 -63 -36 -122 -38 -130 -8 -36 -215 -733 -219
-737 -4 -4 -145 68 -171 87 -5 4 -50 30 -100 58 -49 27 -211 118 -360 202
-148 84 -288 163 -310 175 -22 12 -56 31 -75 42 -143 82 -590 331 -613 341
-120 52 -263 -69 -244 -207 7 -52 -10 -20 280 -533 107 -191 210 -373 228
-405 45 -80 54 -97 151 -268 47 -82 102 -181 123 -220 22 -38 60 -107 87 -153
32 -55 43 -84 35 -87 -13 -5 -1066 -316 -1082 -319 -5 -1 -44 -13 -85 -25 -41
-12 -102 -30 -135 -40 -211 -62 -248 -76 -275 -105 -34 -34 -44 -71 -35 -126
10 -57 56 -92 163 -123 88 -25 245 -72 587 -173 105 -31 204 -59 220 -64 51
-14 650 -191 652 -193 1 -2 -116 -216 -136 -247 -6 -8 -28 -46 -49 -85 -84
-150 -96 -172 -132 -235 -20 -36 -48 -85 -62 -110 -14 -25 -85 -151 -158 -280
-73 -129 -144 -255 -158 -280 -14 -25 -51 -90 -82 -145 -31 -55 -59 -104 -61
-110 -2 -5 -22 -41 -43 -79 -53 -92 -55 -154 -11 -217 43 -61 105 -92 175 -86
50 4 106 33 655 342 682 384 643 362 738 417 40 22 95 53 122 68 28 15 75 41
106 58 l56 31 31 -107 c42 -145 128 -436 162 -552 99 -333 162 -547 165 -560
22 -93 101 -330 117 -353 23 -33 73 -57 116 -57 37 0 91 36 113 75 10 17 83
255 164 530 80 275 157 536 170 580 14 44 48 162 78 262 l53 181 84 -45 c47
-25 110 -60 140 -78 30 -18 82 -47 115 -65 33 -18 125 -70 205 -115 80 -45
165 -93 190 -107 25 -14 223 -126 440 -248 451 -254 461 -260 515 -260 157 0
234 168 146 318 -17 29 -31 55 -31 58 0 2 -11 21 -24 42 -13 20 -72 125 -132
232 -60 107 -114 204 -121 215 -7 11 -16 27 -20 35 -4 8 -39 71 -78 140 -39
69 -98 172 -130 230 -32 58 -66 119 -76 135 -9 17 -71 126 -138 244 -66 118
-121 218 -121 222 0 5 30 17 68 28 371 110 643 190 772 227 85 25 207 61 270
79 310 91 420 124 437 133 32 18 65 59 72 94 18 81 -25 144 -117 172 -87 27
-150 45 -667 196 -264 77 -491 145 -505 149 -14 5 -92 28 -175 52 -82 24 -152
44 -154 46 -5 4 3 20 123 233 54 96 110 195 124 220 14 25 165 292 335 595
170 302 316 564 323 582 40 94 -17 200 -130 243 -47 18 -111 5 -176 -35 -19
-12 -66 -39 -105 -60 -101 -56 -123 -68 -347 -195 -112 -63 -220 -123 -240
-135 -20 -11 -160 -89 -310 -174 -487 -275 -551 -311 -558 -311 -4 0 -10 10
-13 23 -2 12 -62 216 -132 452 -69 237 -149 507 -177 600 -27 94 -58 199 -69
235 -11 36 -21 72 -23 80 -19 75 -42 141 -58 168 -31 51 -97 77 -153 61z
m-655 -2004 c0 -16 -92 -339 -99 -348 -7 -7 -108 -38 -267 -80 l-91 -25 -223
387 c-123 212 -261 450 -307 529 -46 78 -83 144 -83 146 0 2 241 -132 535
-297 294 -166 535 -306 535 -312z m2460 602 c0 -2 -66 -120 -146 -263 -81
-142 -154 -272 -164 -289 -9 -16 -43 -77 -75 -135 -32 -58 -69 -123 -82 -145
-12 -22 -46 -82 -73 -132 -28 -51 -54 -94 -58 -97 -4 -2 -88 19 -186 47 -123
36 -180 57 -182 67 -1 8 -25 87 -53 175 -40 125 -48 162 -38 171 10 9 262 155
692 400 22 12 110 63 195 112 145 84 170 97 170 89z m-1565 -1258 c247 -89
393 -366 331 -631 -52 -226 -260 -401 -489 -412 -146 -8 -274 34 -384 126 -68
57 -138 164 -165 252 -34 110 -30 237 11 341 78 200 263 343 456 354 28 1 51
4 53 5 7 8 135 -17 187 -35z m-1230 -1230 c39 -11 95 -26 125 -35 111 -29 101
-15 153 -207 26 -95 47 -175 47 -179 0 -5 -287 -176 -315 -187 -5 -2 -26 -14
-45 -26 -19 -12 -109 -65 -200 -117 -91 -52 -205 -119 -255 -148 -49 -29 -115
-66 -145 -83 -30 -16 -65 -37 -77 -45 -13 -8 -23 -12 -23 -10 0 4 74 136 397
708 14 25 45 81 70 125 24 44 57 103 74 130 16 28 36 64 45 82 14 29 18 31 47
22 18 -6 64 -19 102 -30z m2375 -300 c102 -176 197 -341 211 -367 15 -26 65
-114 113 -195 48 -81 89 -154 92 -162 4 -8 -41 12 -97 44 -57 32 -131 73 -165
92 -644 360 -805 454 -801 468 14 47 60 214 74 266 8 33 20 65 27 72 11 11
316 101 346 102 9 0 85 -121 200 -320z"/>
</g>
</svg>
