<svg enable-background="new 0 0 32 32" height="32" viewBox="0 0 32 32" width="32" xmlns="http://www.w3.org/2000/svg"><g fill="#121313"><path d="m12 0h-10c-1.105 0-2 .895-2 2v10c0 1.104.895 2 2 2h10c1.105 0 2-.896 2-2v-10c0-1.105-.895-2-2-2zm0 12h-10v-10h10z"/><path d="m30 0h-10c-1.105 0-2 .895-2 2v10c0 1.104.895 2 2 2h10c1.104 0 2-.896 2-2v-10c0-1.105-.896-2-2-2zm0 12h-10v-10h10z"/><path d="m30 18h-10c-1.105 0-2 .896-2 2v10c0 1.105.895 2 2 2h10c1.104 0 2-.895 2-2v-10c0-1.105-.896-2-2-2zm0 12h-10v-10h10z"/><path d="m12 18h-10c-1.105 0-2 .896-2 2v10c0 1.105.895 2 2 2h10c1.105 0 2-.895 2-2v-10c0-1.105-.895-2-2-2zm0 12h-10v-10h10z"/></g></svg>